<mxfile host="65bd71144e">
    <diagram id="zRCiL9ZMk7N_7-01TlMQ" name="Diagrama_Casos_de_Uso">
        <mxGraphModel dx="631" dy="478" grid="1" gridSize="10" guides="1" tooltips="1" connect="1" arrows="1" fold="1" page="1" pageScale="1" pageWidth="827" pageHeight="1169" math="0" shadow="0">
            <root>
                <mxCell id="0"/>
                <mxCell id="1" parent="0"/>
                <mxCell id="70" value="" style="rounded=0;whiteSpace=wrap;html=1;rotation=90;" parent="1" vertex="1">
                    <mxGeometry x="208.63" y="331.89" width="150" height="310.3" as="geometry"/>
                </mxCell>
                <mxCell id="3" value="Professor" style="shape=umlActor;verticalLabelPosition=bottom;verticalAlign=top;html=1;outlineConnect=0;" parent="1" vertex="1">
                    <mxGeometry x="60" y="452.5" width="30" height="60" as="geometry"/>
                </mxCell>
                <mxCell id="102" style="edgeStyle=none;html=1;entryX=0;entryY=0.5;entryDx=0;entryDy=0;exitX=1;exitY=0.5;exitDx=0;exitDy=0;" parent="1" source="109" target="108" edge="1">
                    <mxGeometry relative="1" as="geometry">
                        <mxPoint x="320" y="472.5" as="targetPoint"/>
                        <mxPoint x="273.0000000000009" y="472.5" as="sourcePoint"/>
                    </mxGeometry>
                </mxCell>
                <mxCell id="85" value="" style="endArrow=none;html=1;exitX=1;exitY=0.3333333333333333;exitDx=0;exitDy=0;entryX=0;entryY=0.5;entryDx=0;entryDy=0;exitPerimeter=0;" parent="1" source="3" target="109" edge="1">
                    <mxGeometry width="50" height="50" relative="1" as="geometry">
                        <mxPoint x="240.96194077712562" y="398.7867965644034" as="sourcePoint"/>
                        <mxPoint x="149.99999999999943" y="472.5" as="targetPoint"/>
                    </mxGeometry>
                </mxCell>
                <mxCell id="108" value="Volta // Tela inicial" style="ellipse;whiteSpace=wrap;html=1;" parent="1" vertex="1">
                    <mxGeometry x="300" y="447.5" width="120" height="50" as="geometry"/>
                </mxCell>
                <mxCell id="109" value="Tela inicial" style="ellipse;whiteSpace=wrap;html=1;" vertex="1" parent="1">
                    <mxGeometry x="150" y="447.5" width="120" height="50" as="geometry"/>
                </mxCell>
            </root>
        </mxGraphModel>
    </diagram>
    <diagram id="ZNvAoRlTpkrzS0pwarnU" name="Diagrama_de_Classes">
        <mxGraphModel dx="832" dy="357" grid="1" gridSize="10" guides="1" tooltips="1" connect="1" arrows="1" fold="1" page="1" pageScale="1" pageWidth="827" pageHeight="1169" math="0" shadow="0">
            <root>
                <mxCell id="sABFFBu3MnDv28G-qy3n-0"/>
                <mxCell id="sABFFBu3MnDv28G-qy3n-1" parent="sABFFBu3MnDv28G-qy3n-0"/>
            </root>
        </mxGraphModel>
    </diagram>
</mxfile>